<?xml version="1.0" encoding="UTF-8"?>
<svg width="20px" height="19px" viewBox="0 0 20 19" version="1.1" xmlns="http://www.w3.org/2000/svg" xmlns:xlink="http://www.w3.org/1999/xlink">
    <!-- Generator: Sketch 52.2 (67145) - http://www.bohemiancoding.com/sketch -->
    <title>heart 86x78</title>
    <desc>Created with Sketch.</desc>
    <g id="Mobile-E-Commerce-Final" stroke="none" stroke-width="1" fill="none" fill-rule="evenodd">
        <g id="Nike-" transform="translate(-328.000000, -773.000000)" fill="#000000">
            <g id="Bottom-Nav-x5" transform="translate(0.000000, 752.000000)">
                <g id="Button" transform="translate(300.000000, 0.000000)">
                    <path d="M43.5971661,28.4744298 C43.771585,28.6488486 43.8692596,28.8883839 43.8692596,29.1325703 C43.8692596,29.3767567 43.771585,29.6186175 43.5971661,29.7907108 C43.4250729,29.9651297 43.1855376,30.0628042 42.9390256,30.0628042 C42.6948392,30.0628042 42.455304,29.9651297 42.2834433,29.7907108 C42.1090244,29.6186175 42.0087917,29.3790823 42.0087917,29.1325703 C42.0087917,28.8883839 42.1090244,28.6488486 42.2834433,28.4744298 C42.455304,28.3023365 42.6948392,28.2023363 42.9390256,28.2023363 C43.1855376,28.2023363 43.4250729,28.3023365 43.5971661,28.4744298 M44.7201911,27.1230324 C44.7499586,27.5716377 44.4104232,27.9593127 43.9618179,27.9888476 C43.9436783,27.9900104 43.9255387,27.9907081 43.9073992,27.9907081 C43.4822823,27.9907081 43.1243747,27.6607076 43.0960026,27.2302419 C43.0087932,25.9111701 42.1466989,25.6946582 41.9746056,25.6646581 C41.5292561,25.6037278 41.2246045,25.1941923 41.2855348,24.7488428 C41.3466977,24.3032607 41.7639076,23.9941905 42.2092571,24.053958 C43.0148397,24.1644233 44.5767025,24.9479129 44.7201911,27.1230324 M44.9474007,29.8165248 C41.9334427,33.1974601 39.1880898,35.8342082 37.9999485,36.9444424 C36.8125049,35.8351384 34.0694775,33.2009484 31.0524963,29.8165248 C29.83482,28.4507088 29.5317963,26.7848924 30.2213322,25.2462854 C30.8606355,23.8193065 32.2306375,22.8604679 33.6301745,22.8604679 C36.4055275,22.8604679 37.033668,24.9362849 37.0978541,25.1795411 C37.200645,25.5897743 37.5690176,25.8837282 37.9927392,25.8837282 L38.0008787,25.8837282 C38.4234375,25.8837282 38.7943683,25.5900069 38.9018103,25.1807039 C38.9639034,24.9437268 39.5894857,22.863026 42.369955,22.863026 C43.7692594,22.863026 45.1392615,23.8204693 45.7787973,25.2474482 C46.4681007,26.7860551 46.1653095,28.4507088 44.9474007,29.8165248 M47.4762417,24.485354 C46.5276356,22.3681416 44.523214,21 42.369955,21 C40.2180913,21 38.8222753,21.946513 37.9999485,22.9718634 C37.1776217,21.946513 35.7818056,21 33.6301745,21 C31.4769155,21 29.4724939,22.3681416 28.5236553,24.485354 C27.5357468,26.6900085 27.9620265,29.1455936 29.6638895,31.0546662 C33.7404072,35.6276963 37.3429708,38.8697941 37.3787848,38.9018872 C37.5555292,39.0604921 37.7778551,39.139562 37.9999485,39.139562 C38.2222744,39.139562 38.4443678,39.0604921 38.6211122,38.9018872 C38.6569262,38.8697941 42.2594897,35.6276963 46.3360074,31.0546662 C48.0378704,29.1455936 48.4643827,26.6900085 47.4762417,24.485354" id="heart-86x78"></path>
                </g>
            </g>
        </g>
    </g>
</svg>