<?xml version="1.0" encoding="UTF-8"?>
<svg width="21px" height="18px" viewBox="0 0 21 18" version="1.1" xmlns="http://www.w3.org/2000/svg" xmlns:xlink="http://www.w3.org/1999/xlink">
    <!-- Generator: Sketch 52.2 (67145) - http://www.bohemiancoding.com/sketch -->
    <title>Path</title>
    <desc>Created with Sketch.</desc>
    <g id="Symbols" stroke="none" stroke-width="1" fill="none" fill-rule="evenodd">
        <g id="Heart/fill" fill="#FF2D55" stroke="#FF2D55">
            <path d="M18.5382358,8.1852902 C19.4002553,7.33250347 19.8713021,6.20668629 19.8669231,5.00602845 C19.8669231,3.80163158 19.3971708,2.67632916 18.5388061,1.82732844 C17.6754432,0.977743232 16.5331664,0.509645527 15.320295,0.509645527 C14.1049609,0.509645527 12.9590347,0.979434178 12.0978182,1.83125319 L11.0056011,2.9115522 C10.5523658,3.35984189 9.8243092,3.35984189 9.37107389,2.9115522 L8.26910487,1.82160767 C7.40748079,0.969385472 6.26138611,0.5 5.04175208,0.5 C3.82851691,0.5 2.68685456,0.968318012 1.82811697,1.81768291 C0.969960196,2.66214506 0.5,3.78681193 0.5,4.99156016 C0.5,6.19286535 0.972427549,7.31908282 1.83390318,8.17115819 L10.1768369,16.4230553 L18.5382358,8.1852902 Z" id="Path"></path>
        </g>
    </g>
</svg>